# Made in Blockbench 5.0.7
mtllib model.mtl

o mesh
v 0.25 0.5 0.25
v 0.25 0.5 -0.25
v 0.25 0 0.25
v 0.25 0 -0.25
v -0.25 0.5 0.25
v -0.25 0.5 -0.25
v -0.25 0 0.25
v -0.25 0 -0.25
vt 0.484375 0.9111111111111111
vt 0.0265625 0.9111111111111111
vt 0.0265625 0.05555555555555558
vt 0.484375 0.05555555555555558
vt 0.4765625 0.08333333333333337
vt 0.4765625 0.8916666666666666
vt 0.0328125 0.8916666666666666
vt 0.0328125 0.08333333333333337
vt 0.5140625 0.10277777777777775
vt 0.9640625 0.10277777777777775
vt 0.9640625 0.9166666666666666
vt 0.5140625 0.9166666666666666
vt 0.9671875 0.09166666666666667
vt 0.9671875 0.9083333333333333
vt 0.515625 0.9083333333333333
vt 0.515625 0.09166666666666667
vt 0.4765625 0.08333333333333337
vt 0.4765625 0.9111111111111111
vt 0.021875 0.9111111111111111
vt 0.021875 0.08333333333333337
vt 0.4875 0.8916666666666666
vt 0.0203125 0.8916666666666666
vt 0.025 0.05277777777777781
vt 0.484375 0.05833333333333335
vn 1 0 0
vn -1 0 0
vn 0 1 0
vn 0 -1 0
vn 0 0 1
vn 0 0 -1
usemtl m_7c983741-be2e-3527-a32c-64325727fd2a
f 2/1/1 1/2/1 3/3/1
f 2/1/1 3/3/1 4/4/1
f 7/5/2 5/6/2 6/7/2
f 7/5/2 6/7/2 8/8/2
f 5/9/3 1/10/3 2/11/3
f 5/9/3 2/11/3 6/12/3
f 4/13/4 3/14/4 7/15/4
f 4/13/4 7/15/4 8/16/4
f 3/17/5 1/18/5 5/19/5
f 3/17/5 5/19/5 7/20/5
f 6/21/6 2/22/6 4/23/6
f 6/21/6 4/23/6 8/24/6