# Blender 3.4.1
# www.blender.org
mtllib untitled.mtl
o Cube
v 1.024687 0.654521 -3.034840
v 1.024687 -1.000000 -3.034840
v 1.024687 0.654521 3.087286
v 1.024687 -1.000000 3.087286
v -1.000000 0.654521 -3.034840
v -1.000000 -1.000000 -3.034840
v -1.000000 0.654521 3.087286
v -1.000000 -1.000000 3.087286
v 1.648553 0.742211 -3.034840
v 1.648553 -1.000000 -3.034840
v 1.648553 0.697394 3.087286
v 1.648553 -1.000000 3.087286
v 2.674077 0.742211 -3.034840
v 2.674077 -1.000000 -3.034840
v 2.674077 0.697394 3.087286
v 2.674077 -1.000000 3.087286
v -1.000000 -1.000000 0.026223
v 1.024687 0.654521 0.026223
v -1.000000 0.654521 0.026223
v 1.024687 -1.000000 0.026223
v 1.648553 1.040186 0.026223
v 1.648553 -1.000000 0.026223
v 2.674077 1.040186 0.026223
v 2.674077 -1.000000 0.026223
v -1.000000 0.654521 -1.504309
v 1.024687 -1.000000 -1.504309
v 1.648553 -1.000000 -1.504309
v 2.674077 -1.000000 -1.504309
v -1.000000 -1.000000 -1.504309
v 1.024687 0.654521 -1.504309
v 1.648553 0.742211 -1.504309
v 2.674077 0.742211 -1.504309
v -1.000000 -1.000000 1.556754
v 1.024687 0.654521 1.556754
v 1.648553 0.697394 1.556754
v 2.674077 0.697394 1.556754
v -1.000000 0.654521 1.556754
v 1.024687 -1.000000 1.556754
v 1.648553 -1.000000 1.556754
v 2.674077 -1.000000 1.556754
v 0.012344 -1.000000 -3.034840
v 0.012344 0.654521 3.087286
v 0.012343 -1.000000 3.087286
v 0.012343 0.654521 -3.034840
v 0.012344 -1.000000 0.026223
v 0.012343 0.654521 0.026223
v 0.012343 0.654521 -1.504309
v 0.012344 -1.000000 -1.504309
v 0.012344 -1.000000 1.556754
v 0.012343 0.654521 1.556754
v -0.493828 -1.000000 -3.034840
v -0.493828 0.654521 3.087286
v -0.493828 -1.000000 0.026223
v -0.493828 -1.000000 -1.504309
v -0.493828 -1.000000 1.556754
v -0.493828 -1.000000 3.087286
v -0.493828 0.654521 -3.034840
v -0.493828 0.654521 0.026223
v -0.493828 0.654521 -1.504309
v -0.493828 0.654521 1.556754
v -0.493828 1.745032 0.026223
v 0.012343 1.745032 0.026223
v -0.493828 1.745032 -1.504309
v 0.012343 1.745032 -1.504309
v -0.493828 1.745032 1.556754
v 0.012343 1.745032 1.556754
vn -0.0000 1.0000 -0.0000
vn -0.0000 -0.0000 1.0000
vn -1.0000 -0.0000 -0.0000
vn -0.0000 -1.0000 -0.0000
vn -0.0000 -0.0000 -1.0000
vn -0.0686 0.9976 -0.0000
vn 1.0000 -0.0000 -0.0000
vn -0.0000 0.9816 -0.1911
vn -0.1392 0.9903 -0.0000
vn -0.0000 0.9758 0.2186
vn -0.5165 0.8356 0.1871
vn -0.5188 0.8392 -0.1634
vt 0.878572 0.254369
vt 0.208591 0.000000
vt 0.670708 0.254369
vt 0.137005 0.769166
vt 0.375000 0.500000
vt 0.625000 0.750000
vt 0.916201 0.961593
vt 0.208591 0.769144
vt 0.375000 0.750000
vt 0.462844 0.000022
vt 0.878572 0.000000
vt 0.125000 0.500000
vt 0.670708 0.000000
vt 0.278976 0.769166
vt 0.462844 0.769147
vt 0.375000 1.000000
vt 0.670708 0.769147
vt 0.125000 0.750000
vt 0.278976 0.977030
vt 0.889589 0.332748
vt 0.129915 0.000025
vt 0.375000 0.500000
vt 0.215384 0.769166
vt 0.670708 0.332748
vt 0.625000 0.750000
vt 0.130085 0.769153
vt 0.375000 0.750000
vt 0.655131 0.988028
vt 0.889589 0.461589
vt 0.625000 0.500000
vt 0.001133 0.000014
vt 0.375000 0.500000
vt 0.655131 0.769147
vt 0.670708 0.461589
vt 0.625000 0.750000
vt 0.001303 0.769141
vt 0.375000 0.750000
vt 0.670708 0.384573
vt 0.125000 0.625000
vt 0.208591 0.384572
vt 0.462844 0.384594
vt 0.375000 0.625000
vt 0.128782 0.384704
vt 0.375000 0.625000
vt 0.625000 0.625000
vt 0.000000 0.384693
vt 1.000000 0.717906
vt 0.375000 0.625000
vt 1.000000 0.461589
vt 0.462844 0.192308
vt 0.137005 0.961453
vt 0.375000 0.562500
vt 0.215384 0.961453
vt 0.375000 0.562500
vt 0.462844 0.769147
vt 0.375000 0.562500
vt 0.670708 0.192287
vt 0.125000 0.562500
vt 0.208591 0.192286
vt 0.129915 0.192311
vt 0.625000 0.562500
vt 0.001133 0.192300
vt 0.125000 0.687500
vt 0.670708 0.576860
vt 0.208591 0.576858
vt 0.130085 0.576867
vt 0.625000 0.687500
vt 0.001303 0.576855
vt 0.807713 0.674839
vt 0.462844 0.576880
vt 0.375000 0.687500
vt 0.375000 0.687500
vt 0.375000 0.687500
vt 0.250000 0.500000
vt 0.670708 0.127185
vt 0.807713 0.895213
vt 0.335717 0.769155
vt 0.625000 0.875000
vt 0.250000 0.750000
vt 0.375000 0.875000
vt 0.916201 0.717906
vt 0.878572 0.127185
vt 0.335717 0.000011
vt 0.250000 0.625000
vt 0.335717 0.384583
vt 0.750000 0.625000
vt 0.750000 0.562500
vt 0.278976 0.769166
vt 0.335717 0.192297
vt 0.137005 0.961453
vt 0.250000 0.562500
vt 0.250000 0.687500
vt 0.335717 0.576869
vt 0.750000 0.687500
vt 0.187500 0.500000
vt 0.670708 0.063592
vt 0.215384 0.769166
vt 0.625000 0.937500
vt 0.399281 0.769161
vt 0.187500 0.625000
vt 0.187500 0.562500
vt 0.187500 0.687500
vt 0.187500 0.750000
vt 0.375000 0.937500
vt 0.878572 0.063592
vt 0.399281 0.000017
vt 0.399281 0.384588
vt 0.807713 0.653876
vt 0.807713 0.461589
vt 0.399281 0.192303
vt 0.342569 0.769166
vt 0.807713 0.846163
vt 0.812500 0.687500
vt 0.399281 0.576874
vt 0.670708 0.653876
vt 0.889589 0.192286
vt 0.750000 0.625000
vt 0.000000 0.769166
vt 0.953152 0.192291
vt 0.670708 0.461589
vt 0.889589 0.384572
vt 0.342569 0.906171
vt 0.953152 0.384578
vt 0.000000 0.961453
vt 0.278976 0.906171
vt 0.670708 0.846163
vt 0.889589 0.000000
vt 0.812500 0.687500
vt 0.953152 0.000005
vt 0.750000 0.687500
s 0
usemtl Material
f 37/70/1 52/99/1 60/114/1
f 52/98/2 8/16/2 56/104/2
f 25/50/3 6/13/3 29/57/3
f 49/92/4 38/71/4 4/9/4 43/79/4
f 3/6/2 12/27/2 11/25/2
f 41/75/5 44/82/5 1/1/5 2/3/5
f 27/54/4 10/22/4 14/32/4 28/56/4
f 2/3/5 1/1/5 9/20/5 10/24/5
f 26/51/4 2/4/4 10/23/4 27/53/4
f 3/8/6 35/66/6 34/65/6
f 36/67/7 16/37/7 40/73/7
f 12/27/2 15/35/2 11/25/2
f 11/26/1 36/68/1 35/66/1
f 9/20/5 14/34/5 10/24/5
f 21/43/8 32/62/8 31/60/8
f 32/61/7 24/48/7 28/56/7
f 18/40/9 31/60/9 30/59/9
f 38/71/4 20/42/4 22/44/4 39/72/4
f 39/72/4 22/44/4 24/48/4 40/73/4
f 48/91/4 26/52/4 20/42/4 45/84/4
f 33/64/3 37/70/3 19/41/3 17/38/3
f 59/110/1 25/50/1 19/41/1 58/107/1
f 5/10/1 59/110/1 57/106/1
f 41/74/4 2/5/4 26/52/4 48/91/4
f 30/59/9 9/21/9 1/2/9
f 13/28/7 28/55/7 14/33/7
f 31/60/1 13/31/1 9/21/1
f 20/42/4 26/52/4 27/54/4 22/44/4
f 22/44/4 27/54/4 28/56/4 24/48/4
f 17/38/3 19/41/3 25/50/3 29/57/3
f 7/15/3 33/64/3 8/17/3
f 39/72/4 16/37/4 12/27/4
f 4/9/4 38/71/4 39/72/4 12/27/4
f 35/66/10 23/46/10 21/43/10
f 24/48/7 36/67/7 40/73/7
f 18/40/11 35/66/11 21/43/11
f 45/84/4 20/42/4 38/71/4 49/92/4
f 19/41/1 60/114/1 58/107/1
f 46/85/1 34/65/1 18/40/1
f 53/100/4 45/84/4 49/92/4 55/102/4
f 51/95/4 41/74/4 48/91/4 54/101/4
f 44/83/1 30/59/1 1/2/1
f 47/89/1 18/40/1 30/59/1
f 54/101/4 48/91/4 45/84/4 53/100/4
f 51/96/5 57/105/5 44/82/5 41/75/5
f 55/102/4 49/92/4 43/79/4 56/103/4
f 3/6/2 43/80/2 4/9/2
f 50/93/1 3/8/1 34/65/1
f 33/63/4 55/102/4 56/103/4 8/18/4
f 5/11/5 51/96/5 6/13/5
f 29/58/4 54/101/4 53/100/4 17/39/4
f 6/12/4 51/95/4 54/101/4 29/58/4
f 17/39/4 53/100/4 55/102/4 33/63/4
f 46/86/7 66/130/7 50/94/7
f 57/106/1 47/89/1 44/83/1
f 47/87/7 62/117/7 46/86/7
f 42/78/2 56/104/2 43/80/2
f 50/93/1 52/99/1 42/77/1
f 61/116/1 66/129/1 62/119/1
f 63/121/1 62/119/1 64/123/1
f 59/111/5 64/125/5 47/88/5
f 59/109/3 58/108/3 61/115/3 63/120/3
f 58/108/3 60/112/3 65/126/3 61/115/3
f 50/94/2 65/128/2 60/113/2
f 37/70/1 7/15/1 52/99/1
f 52/97/2 7/14/2 8/19/2
f 25/50/3 5/10/3 6/13/3
f 3/6/2 4/9/2 12/27/2
f 3/8/6 11/26/6 35/66/6
f 36/67/7 15/35/7 16/37/7
f 12/27/2 16/37/2 15/35/2
f 11/26/1 15/36/1 36/68/1
f 9/20/5 13/29/5 14/34/5
f 21/43/8 23/46/8 32/62/8
f 32/61/7 23/45/7 24/48/7
f 18/40/12 21/43/12 31/60/12
f 5/10/1 25/50/1 59/110/1
f 30/59/9 31/60/9 9/21/9
f 13/30/7 32/61/7 28/56/7
f 31/60/1 32/62/1 13/31/1
f 7/15/3 37/70/3 33/64/3
f 39/72/4 40/73/4 16/37/4
f 35/66/10 36/68/10 23/46/10
f 24/49/7 23/47/7 36/69/7
f 18/40/6 34/65/6 35/66/6
f 19/41/1 37/70/1 60/114/1
f 46/85/1 50/93/1 34/65/1
f 44/83/1 47/89/1 30/59/1
f 47/89/1 46/85/1 18/40/1
f 3/7/2 42/76/2 43/81/2
f 50/93/1 42/77/1 3/8/1
f 5/11/5 57/105/5 51/96/5
f 46/86/7 62/117/7 66/130/7
f 57/106/1 59/110/1 47/89/1
f 47/90/7 64/124/7 62/118/7
f 42/78/2 52/98/2 56/104/2
f 50/93/1 60/114/1 52/99/1
f 61/116/1 65/127/1 66/129/1
f 63/121/1 61/116/1 62/119/1
f 59/111/5 63/122/5 64/125/5
f 50/94/2 66/130/2 65/128/2
